<svg viewBox="0 0 240 40.261" xmlns="http://www.w3.org/2000/svg" xmlns:xlink="http://www.w3.org/1999/xlink"><clipPath id="a"><path d="m0 0h240v40.261h-240z"/></clipPath><g clip-path="url(#a)"><g fill="#fff"><path d="m272.087 29.464h9.992c5.989 0 9.515 3.013 9.515 8.413 0 5.253-3.16 8.266-8.964 8.266h-6.13v7.494h-4.408zm10.287 13.556c3.2 0 5.033-1.616 5.033-4.923 0-3.2-1.947-4.959-5.474-4.959h-5.433v9.882z" transform="translate(-204.366 -22.131)"/><path d="m362.267 65.715c0-2.756 1.947-4.923 6.8-4.923h6.723v-1.286c0-2.719-1.58-3.931-4.776-3.931-2.792 0-4.372 1.065-4.372 3.086a5.771 5.771 0 0 0 .037.7h-3.784a9.077 9.077 0 0 1 -.073-1.065c0-3.637 3.159-5.8 8.339-5.8 5.511 0 8.743 2.609 8.743 7.385v11.051h-4.114c.073-.882.184-2.535.184-4h-.037c-.588 2.682-2.755 4.3-6.76 4.3-4.151 0-6.907-1.983-6.907-5.51m13.52-2.094v-.338h-6.356c-2.351 0-3.38.808-3.38 2.241 0 1.653 1.469 2.608 3.968 2.608 3.564 0 5.768-1.727 5.768-4.519" transform="translate(-272.101 -39.425)"/><path d="m0 0h4.114v25.459h-4.114z" transform="translate(111.389 6.047)"/><path d="m0 0h4.115v25.459h-4.115z" transform="translate(119.267 6.047)"/><path d="m510.771 65.715c0-2.756 1.947-4.923 6.8-4.923h6.723v-1.286c0-2.719-1.58-3.931-4.776-3.931-2.793 0-4.372 1.065-4.372 3.086a5.767 5.767 0 0 0 .037.7h-3.783a9.078 9.078 0 0 1 -.073-1.065c0-3.637 3.159-5.8 8.34-5.8 5.51 0 8.743 2.609 8.743 7.385v11.051h-4.114c.073-.882.184-2.535.184-4h-.037c-.588 2.682-2.755 4.3-6.76 4.3-4.152 0-6.907-1.983-6.907-5.51m13.52-2.094v-.338h-6.356c-2.351 0-3.38.808-3.38 2.241 0 1.653 1.469 2.608 3.967 2.608 3.564 0 5.768-1.727 5.768-4.519" transform="translate(-383.643 -39.425)"/><path d="m595.2 40.572c0-5.474 3.417-9.258 8.817-9.258 3.416 0 5.547 1.359 6.282 3.49h.037v-10.504h4.114v25.457h-4.114c.073-1.066.11-2.645.184-4.409h-.073c-.7 2.866-2.976 4.7-6.687 4.7-5.253 0-8.56-3.821-8.56-9.478m15.136.294v-.882c0-3.233-2.241-5.29-5.658-5.29-3.269 0-5.4 2.425-5.4 5.878 0 3.6 2.094 6.1 5.327 6.1a5.419 5.419 0 0 0 5.732-5.8" transform="translate(-447.055 -18.25)"/><path d="m687.406 28.873h4.225v4.041h-4.225zm.037 6.172h4.115v18.148h-4.115z" transform="translate(-516.315 -21.687)"/><path d="m719.285 65.715c0-2.756 1.947-4.923 6.8-4.923h6.715v-1.286c0-2.719-1.579-3.931-4.776-3.931-2.792 0-4.371 1.065-4.371 3.086a5.8 5.8 0 0 0 .037.7h-3.784a9.116 9.116 0 0 1 -.073-1.065c0-3.637 3.159-5.8 8.339-5.8 5.511 0 8.744 2.609 8.744 7.385v11.051h-4.116c.073-.882.183-2.535.183-4h-.037c-.588 2.682-2.755 4.3-6.759 4.3-4.151 0-6.907-1.983-6.907-5.51m13.52-2.101v-.331h-6.355c-2.351 0-3.38.808-3.38 2.241 0 1.653 1.47 2.608 3.968 2.608 3.563 0 5.768-1.727 5.768-4.519" transform="translate(-540.259 -39.425)"/><path d="m804.564 52.783h4.115l-.147 4.849h.037c.992-3.27 3.343-5.144 7.568-5.144 4.592 0 7.421 2.609 7.421 7.09v11.354h-4.115v-10.432c0-2.865-1.616-4.482-4.886-4.482-3.6 0-5.878 2.168-5.878 6.135v8.78h-4.115z" transform="translate(-604.313 -39.425)"/><path d="m894.451 64.871h3.71c0 2.094 1.213 3.38 4.739 3.38 3.344 0 4.813-1.029 4.813-2.682a1.593 1.593 0 0 0 -1.212-1.653 22.548 22.548 0 0 0 -4.629-.7c-2.829-.257-4.739-.624-5.842-1.433a4.3 4.3 0 0 1 -1.579-3.453c0-3.637 3.527-5.841 8.449-5.841 5.658 0 8.156 2.351 8.156 6.466h-3.711c-.037-2.351-1.322-3.49-4.335-3.49-2.865 0-4.482 1.029-4.482 2.572a1.722 1.722 0 0 0 1.249 1.874 28.88 28.88 0 0 0 4.813.7c2.572.257 4.041.515 5.327 1.249a3.966 3.966 0 0 1 1.91 3.527c0 3.674-3.086 5.841-8.891 5.841-6.245 0-8.486-2.792-8.486-6.356" transform="translate(-671.827 -39.426)"/></g><g fill="#737aef"><path d="m38.684 0h-11.572l10.988 16.477-10.988 16.476-15.541-23.312h-11.571l20.414 30.621h11.571l-4.872-7.309h11.571l10.038-15.053.947-1.422z"/><path d="m62.033.006h-15.54v9.638h9.114z" transform="translate(-34.921 -.005)"/></g></g></svg>
